<?xml version="1.0" encoding="utf-8"?>
<!-- Svg Vector Icons : http://www.onlinewebfonts.com/icon -->
<!DOCTYPE svg PUBLIC "-//W3C//DTD SVG 1.1//EN" "http://www.w3.org/Graphics/SVG/1.1/DTD/svg11.dtd">
<svg version="1.1" xmlns="http://www.w3.org/2000/svg" xmlns:xlink="http://www.w3.org/1999/xlink" x="0px" y="0px" viewBox="0 0 1000 1000" enable-background="new 0 0 1000 1000" xml:space="preserve">
<metadata> Svg Vector Icons : http://www.onlinewebfonts.com/icon </metadata>
<g><g><path d="M500,10C229.4,10,10,229.4,10,500c0,270.6,219.4,490,490,490c270.6,0,490-219.4,490-490C990,229.4,770.6,10,500,10z M500,913.4C271.7,913.4,86.6,728.3,86.6,500S271.7,86.6,500,86.6S913.4,271.7,913.4,500S728.3,913.4,500,913.4z"/><g><g><path d="M474.2,378.8c9,12.6,13.6,27.8,13.6,45.5c0,18.2-4.6,32.9-13.7,44c-5.1,6.2-12.6,11.9-22.5,17c15,5.6,26.4,14.3,34.1,26.3c7.7,12.1,11.5,26.6,11.5,43.8c0,17.7-4.4,33.6-13.2,47.6c-5.6,9.4-12.5,17.2-20.9,23.6c-9.4,7.3-20.6,12.2-33.3,15c-12.8,2.6-26.7,4-41.7,4H255V346.9h142.7C433.7,347.4,459.3,358,474.2,378.8z M313.9,398.8v65.8h71.8c12.8,0,23.2-2.5,31.3-7.4c7.9-5,12-13.7,12-26.3c0-14-5.3-23.1-15.9-27.6c-9.1-3.1-20.8-4.6-34.9-4.6H313.9z M313.9,514.2v79.6h71.7c12.8,0,22.8-1.8,29.9-5.3c13-6.5,19.4-19,19.4-37.3c0-15.6-6.3-26.2-18.8-32c-7-3.2-16.8-4.9-29.5-5H313.9z"/><path d="M687.9,429.1c15.3,6.9,27.8,17.8,37.8,32.7c8.9,13.2,14.7,28.4,17.4,45.7c1.5,10.1,2.1,24.7,1.9,43.8h-159c0.9,22.3,8.6,37.7,22.9,46.7c8.7,5.5,19.2,8.3,31.4,8.3c13,0,23.6-3.4,31.7-10.1c4.5-3.6,8.4-8.6,11.8-15.2H742c-1.5,13-8.6,26.4-21.2,40c-19.6,21.4-47,32.2-82.2,32.2c-29,0-54.6-9.1-76.9-27.2c-22.2-18.2-33.3-47.6-33.3-88.5c0-38.2,10-67.6,30.1-88c20-20.4,46-30.7,78-30.7C655.6,418.8,672.7,422.3,687.9,429.1z M602.5,479.1c-8.1,8.5-13.1,19.8-15.2,34.3h98.3c-1-15.4-6.1-27.1-15.3-35c-9.1-7.9-20.3-11.9-33.8-11.9C622,466.5,610.6,470.7,602.5,479.1z"/></g><rect x="561.3" y="377.5" width="153.1" height="30.6"/></g></g></g>
</svg>